<svg viewBox="0 0 400 250" xmlns="http://www.w3.org/2000/svg">
  <defs>
    <linearGradient id="projGrad5" x1="0%" y1="0%" x2="100%" y2="100%">
      <stop offset="0%" style="stop-color:#4a3a2c"/>
      <stop offset="100%" style="stop-color:#7a5c3a"/>
    </linearGradient>
  </defs>
  <rect width="400" height="250" fill="url(#projGrad5)"/>
  
  <!-- Archive/File stack -->
  <rect x="60" y="100" width="140" height="90" fill="rgba(255,255,255,0.15)" stroke="white" stroke-width="2" rx="4"/>
  <rect x="65" y="95" width="140" height="90" fill="rgba(255,255,255,0.15)" stroke="white" stroke-width="2" rx="4"/>
  <rect x="70" y="90" width="140" height="90" fill="rgba(255,255,255,0.2)" stroke="white" stroke-width="2" rx="4"/>
  
  <!-- Grid of thumbnails (representing archive items) -->
  <g opacity="0.8">
    <rect x="240" y="70" width="35" height="35" fill="#ff6b6b" rx="3"/>
    <rect x="285" y="70" width="35" height="35" fill="#4ecdc4" rx="3"/>
    <rect x="330" y="70" width="35" height="35" fill="#ffd93d" rx="3"/>
    <rect x="240" y="115" width="35" height="35" fill="#a29bfe" rx="3"/>
    <rect x="285" y="115" width="35" height="35" fill="#fd79a8" rx="3"/>
    <rect x="330" y="115" width="35" height="35" fill="#74b9ff" rx="3"/>
  </g>
  
  <!-- Metadata icon -->
  <line x1="250" y1="160" x2="360" y2="160" stroke="white" stroke-width="2" opacity="0.6"/>
  <line x1="250" y1="175" x2="330" y2="175" stroke="white" stroke-width="2" opacity="0.6"/>
  
  <!-- Title -->
  <rect x="30" y="205" width="340" height="35" fill="rgba(0,0,0,0.3)" rx="5"/>
  <text x="200" y="230" font-size="18" font-weight="bold" fill="white" text-anchor="middle" font-family="Arial">Digital Archive Viewer</text>
</svg>